<svg width="175" height="175" viewBox="0 0 175 175" fill="none" xmlns="http://www.w3.org/2000/svg">
<path d="M38.9583 174.875V155.458H77.7917V125.363C69.8632 123.583 62.7842 120.225 56.5547 115.29C50.3252 110.355 45.7542 104.166 42.8417 96.7229C30.7063 95.2667 20.553 89.9675 12.3818 80.8255C4.21059 71.6835 0.125 60.9639 0.125 48.6667V38.9583C0.125 33.6188 2.02622 29.0477 5.82865 25.2453C9.63108 21.4429 14.2021 19.5417 19.5417 19.5417H38.9583V0.125H136.042V19.5417H155.458C160.798 19.5417 165.369 21.4429 169.171 25.2453C172.974 29.0477 174.875 33.6188 174.875 38.9583V48.6667C174.875 60.9639 170.789 71.6835 162.618 80.8255C154.447 89.9675 144.294 95.2667 132.158 96.7229C129.246 104.166 124.675 110.355 118.445 115.29C112.216 120.225 105.137 123.583 97.2083 125.363V155.458H136.042V174.875H38.9583ZM38.9583 75.85V38.9583H19.5417V48.6667C19.5417 54.8153 21.3215 60.3571 24.8813 65.2922C28.441 70.2273 33.1333 73.7465 38.9583 75.85ZM87.5 106.917C95.5903 106.917 102.467 104.085 108.13 98.4219C113.793 92.7587 116.625 85.882 116.625 77.7917V19.5417H58.375V77.7917C58.375 85.882 61.2066 92.7587 66.8698 98.4219C72.533 104.085 79.4097 106.917 87.5 106.917ZM136.042 75.85C141.867 73.7465 146.559 70.2273 150.119 65.2922C153.678 60.3571 155.458 54.8153 155.458 48.6667V38.9583H136.042V75.85Z" fill="#E8EAED"/>
</svg>
