<svg width="208" height="158" viewBox="0 0 208 158" fill="none" xmlns="http://www.w3.org/2000/svg">
<path d="M8.23333 86.3796C5.63333 81.4452 3.61111 76.4422 2.16667 71.3707C0.722222 66.2993 0 61.1592 0 55.9507C0 40.5992 5.48889 27.7148 16.4667 17.2977C27.4444 6.8806 41.0222 1.67205 57.2 1.67205C66.3 1.67205 74.9667 3.48819 83.2 7.12047C91.4333 10.7528 98.3667 -4.77003 104 1.67213C109.633 -4.77003 116.567 10.7528 124.8 7.12047C133.033 3.48819 141.7 1.67205 150.8 1.67205C166.978 1.67205 180.556 6.8806 191.533 17.2977C202.511 27.7148 208 40.5992 208 55.9507C208 61.1592 207.278 66.2993 205.833 71.3707C204.389 76.4422 202.367 81.4452 199.767 86.3796C198.178 83.7753 196.3 81.4452 194.133 79.3892C191.967 77.3332 189.439 75.6884 186.55 74.4548C187.85 71.3022 188.861 68.2182 189.583 65.2027C190.306 62.1872 190.667 59.1032 190.667 55.9507C190.667 45.2594 186.839 36.2815 179.183 29.017C171.528 21.7524 162.067 18.1201 150.8 18.1201C139.1 18.1201 130.108 21.1699 123.825 27.2694C117.542 33.3688 110.933 5.18285 104 12.7215C97.0667 5.04578 90.4583 33.1975 84.175 27.1666C77.8917 21.1356 68.9 18.1201 57.2 18.1201C45.9333 18.1201 36.4722 21.7524 28.8167 29.017C21.1611 36.2815 17.3333 45.2594 17.3333 55.9507C17.3333 59.1032 17.6944 62.1872 18.4167 65.2027C19.1389 68.2182 20.15 71.3022 21.45 74.4548C18.5611 75.6884 16.0333 77.3332 13.8667 79.3892C11.7 81.4452 9.82222 83.7753 8.23333 86.3796ZM0 157.929V144.976C0 138.945 3.21389 134.113 9.64167 130.481C16.0694 126.849 24.4111 125.033 34.6667 125.033C36.5444 125.033 38.35 125.067 40.0833 125.135C41.8167 125.204 43.4778 125.375 45.0667 125.649C43.0444 128.391 41.5278 131.338 40.5167 134.49C39.5056 137.643 39 141.001 39 144.565V157.929H0ZM52 157.929V144.565C52 135.655 56.8028 128.459 66.4083 122.977C76.0139 117.494 88.5444 114.753 104 114.753C119.6 114.753 132.167 117.494 141.7 122.977C151.233 128.459 156 135.655 156 144.565V157.929H52ZM169 157.929V144.565C169 141.001 168.531 137.643 167.592 134.49C166.653 131.338 165.244 128.391 163.367 125.649C164.956 125.375 166.581 125.204 168.242 125.135C169.903 125.067 171.6 125.033 173.333 125.033C183.733 125.033 192.111 126.849 198.467 130.481C204.822 134.113 208 138.945 208 144.976V157.929H169ZM104 131.201C95.7667 131.201 88.4 132.229 81.9 134.285C75.4 136.341 71.5722 138.739 70.4167 141.481H137.8C136.5 138.739 132.636 136.341 126.208 134.285C119.781 132.229 112.378 131.201 104 131.201ZM34.6667 116.809C29.9 116.809 25.8194 115.198 22.425 111.977C19.0306 108.756 17.3333 104.884 17.3333 100.36C17.3333 95.7002 19.0306 91.7938 22.425 88.6412C25.8194 85.4887 29.9 83.9124 34.6667 83.9124C39.5778 83.9124 43.6944 85.4887 47.0167 88.6412C50.3389 91.7938 52 95.7002 52 100.36C52 104.884 50.3389 108.756 47.0167 111.977C43.6944 115.198 39.5778 116.809 34.6667 116.809ZM173.333 116.809C168.567 116.809 164.486 115.198 161.092 111.977C157.697 108.756 156 104.884 156 100.36C156 95.7002 157.697 91.7938 161.092 88.6412C164.486 85.4887 168.567 83.9124 173.333 83.9124C178.244 83.9124 182.361 85.4887 185.683 88.6412C189.006 91.7938 190.667 95.7002 190.667 100.36C190.667 104.884 189.006 108.756 185.683 111.977C182.361 115.198 178.244 116.809 173.333 116.809ZM104 108.584C96.7778 108.584 90.6389 106.186 85.5833 101.388C80.5278 96.5911 78 90.7658 78 83.9124C78 76.922 80.5278 71.0623 85.5833 66.3335C90.6389 61.6047 96.7778 59.2403 104 59.2403C111.367 59.2403 117.542 61.6047 122.525 66.3335C127.508 71.0623 130 76.922 130 83.9124C130 90.7658 127.508 96.5911 122.525 101.388C117.542 106.186 111.367 108.584 104 108.584ZM104 75.6884C101.544 75.6884 99.4861 76.4765 97.825 78.0528C96.1639 79.629 95.3333 81.5822 95.3333 83.9124C95.3333 86.2425 96.1639 88.1957 97.825 89.772C99.4861 91.3483 101.544 92.1364 104 92.1364C106.456 92.1364 108.514 91.3483 110.175 89.772C111.836 88.1957 112.667 86.2425 112.667 83.9124C112.667 81.5822 111.836 79.629 110.175 78.0528C108.514 76.4765 106.456 75.6884 104 75.6884Z" fill="#E8EAED"/>
</svg>
