<svg width="184" height="184" viewBox="0 0 184 184" fill="none" xmlns="http://www.w3.org/2000/svg">
<path d="M91.9997 183.667C79.3191 183.667 67.4025 181.26 56.2497 176.448C45.0969 171.635 35.3955 165.104 27.1455 156.854C18.8955 148.604 12.3643 138.903 7.55176 127.75C2.73926 116.597 0.333008 104.68 0.333008 91.9999C0.333008 79.3194 2.73926 67.4027 7.55176 56.2499C12.3643 45.0971 18.8955 35.3958 27.1455 27.1458C35.3955 18.8958 45.0969 12.3645 56.2497 7.552C67.4025 2.7395 79.3191 0.333252 91.9997 0.333252C104.68 0.333252 116.597 2.7395 127.75 7.552C138.902 12.3645 148.604 18.8958 156.854 27.1458C165.104 35.3958 171.635 45.0971 176.448 56.2499C181.26 67.4027 183.666 79.3194 183.666 91.9999C183.666 104.68 181.26 116.597 176.448 127.75C171.635 138.903 165.104 148.604 156.854 156.854C148.604 165.104 138.902 171.635 127.75 176.448C116.597 181.26 104.68 183.667 91.9997 183.667ZM91.9997 165.333C112.472 165.333 129.812 158.229 144.021 144.021C158.229 129.812 165.333 112.472 165.333 91.9999C165.333 90.9305 165.295 89.8228 165.218 88.677C165.142 87.5312 165.104 86.5763 165.104 85.8124C164.34 90.243 162.277 93.9096 158.916 96.8124C155.555 99.7152 151.583 101.167 147 101.167H128.666C123.625 101.167 119.309 99.3715 115.718 95.7812C112.128 92.1909 110.333 87.8749 110.333 82.8333V73.6666H73.6664V55.3333C73.6664 50.2916 75.4615 45.9756 79.0518 42.3853C82.642 38.7951 86.958 36.9999 91.9997 36.9999H101.166C101.166 33.486 102.121 30.3923 104.031 27.7187C105.941 25.0451 108.271 22.868 111.021 21.1874C107.965 20.4235 104.871 19.8124 101.739 19.3541C98.6073 18.8958 95.3608 18.6666 91.9997 18.6666C71.5275 18.6666 54.1872 25.7708 39.9788 39.9791C25.7705 54.1874 18.6663 71.5277 18.6663 91.9999H64.4997C74.583 91.9999 83.215 95.5902 90.3955 102.771C97.5761 109.951 101.166 118.583 101.166 128.667V137.833H73.6664V163.042C76.7219 163.805 79.7393 164.378 82.7184 164.76C85.6976 165.142 88.7914 165.333 91.9997 165.333Z" fill="#E8EAED"/>
</svg>
