<svg width="210" height="188" viewBox="0 0 210 188" fill="none" xmlns="http://www.w3.org/2000/svg">
<path d="M68.332 0.428925C63.1641 1.46422 57.6803 4.18867 53.8617 7.59425C51.4213 9.77382 49.4977 12.3893 46.9998 16.8029C44.6742 20.9169 43.5545 22.606 40.3676 26.6927C39.2766 28.1094 37.6687 30.18 36.8361 31.297C35.1422 33.5038 34.9699 33.5856 36.0322 31.624C37.1807 29.4444 38.9894 24.159 39.5924 21.1076C40.3963 17.2661 40.6547 12.1986 40.224 9.11995C39.8221 6.23203 39.0756 3.53481 38.6736 3.53481C38.5301 3.53481 37.6113 4.29765 36.6352 5.25122C32.8453 8.90199 30.0603 14.024 28.7971 19.6636C27.9932 23.2054 28.0793 30.5887 28.9693 34.3212C29.9168 38.3806 29.7445 40.424 28.1654 43.993C27.5051 45.4915 25.9834 48.9788 24.8062 51.7577C22.2223 57.8333 22.05 58.1875 22.2223 57.0704C22.3084 56.6073 22.5094 54.2915 22.7104 51.894C22.9975 48.1342 22.9975 46.9899 22.5668 43.5299C21.8203 37.1274 20.0977 31.8419 17.4275 27.6735L16.4227 26.0933L15.9633 26.72C13.6377 30.1528 12.0586 36.528 12.0586 42.6853C12.0586 48.8426 13.2357 53.0382 16.7959 59.5224C19.9254 65.271 19.9828 65.5435 19.5234 72.6543C19.3225 75.7875 19.0641 79.6017 18.9779 81.1819L18.8057 84.0426L18.2602 81.7268C15.992 71.8642 10.9102 63.5274 4.30664 58.7868C2.46914 57.4518 2.46914 57.4518 2.18203 58.0785C1.69395 59.141 1.86621 67.6686 2.41172 70.4203C3.35918 75.2698 5.02441 79.2203 7.6084 82.9528C8.81426 84.6964 13.0348 88.8104 16.7098 91.889C19.4947 94.2048 20.0115 95.2128 22.3945 102.95C23.3707 106.165 24.4904 109.652 24.8637 110.688C25.2369 111.75 25.524 112.622 25.4666 112.677C25.4379 112.704 24.634 111.532 23.7152 110.061C19.1789 102.896 14.2406 98.2642 7.80937 95.2128C5.59863 94.1776 2.8998 93.2785 1.17715 93.006L0 92.8153L0.172266 93.7416C0.516797 95.567 2.29687 100.253 3.47402 102.46C7.98164 110.987 14.9871 116.464 25.6963 119.842C29.6871 121.095 28.9693 120.496 35.5441 128.315C37.7549 130.931 40.3102 133.927 41.2576 134.99C42.1764 136.025 42.7219 136.761 42.4922 136.625C42.2625 136.488 40.827 135.589 39.334 134.636C34.6254 131.639 28.5387 129.132 23.1123 128.015C20.4996 127.47 12.0012 126.98 11.0537 127.307C10.6805 127.47 10.7953 127.77 11.8289 129.187C13.3506 131.285 18.2602 136.025 20.4135 137.524C27.1605 142.155 34.0512 144.117 43.7268 144.117C46.885 144.117 48.4928 144.226 49.3541 144.526C50.0145 144.744 52.9717 146.487 55.9289 148.422C58.8861 150.356 62.7908 152.89 64.5996 154.061C66.4084 155.233 67.643 156.104 67.3271 156.023C67.0113 155.941 65.2312 155.369 63.365 154.742C55.0963 151.991 46.5691 151.555 38.5301 153.544C37.0658 153.898 35.3144 154.47 34.6541 154.77L33.477 155.369L34.9699 156.677C35.8025 157.385 37.5539 158.665 38.8746 159.483C48.0334 165.286 59.5752 166.621 68.9062 162.997C73.1842 161.335 74.6771 160.954 76.1127 161.118C77.0889 161.254 94.2867 166.566 98.1914 167.983C98.4211 168.065 97.5598 168.474 96.1816 168.909C84.2666 172.642 73.0693 179.971 72.4377 184.412C72.3228 185.283 72.4377 185.61 73.1555 186.373C73.9594 187.245 74.1603 187.3 75.7394 187.3C77.8641 187.272 78.3234 186.973 83.4053 182.123C88.9752 176.81 94.1144 173.378 99.6269 171.225C103.589 169.7 104.565 169.563 107.063 170.272C113.523 172.097 119.466 175.775 126.644 182.45C131.381 186.836 132.702 187.626 134.827 187.3C136.348 187.082 137.525 185.937 137.525 184.602C137.525 182.014 131.726 177.028 124.577 173.432C121.16 171.716 117.026 170.026 113.408 168.909C112.059 168.474 111.169 168.092 111.398 168.01C111.628 167.956 116.624 166.403 122.452 164.605C128.309 162.779 133.592 161.226 134.252 161.145C135.229 160.981 135.918 161.172 138.645 162.207C144.215 164.414 146.742 164.932 151.737 164.932C156.388 164.959 159.087 164.55 163.078 163.27C167.098 161.962 171.605 159.456 174.85 156.704L176.429 155.369L175.223 154.797C174.562 154.47 172.955 153.898 171.634 153.544C163.71 151.364 153.891 152.181 144.875 155.75C143.957 156.104 143.153 156.377 143.095 156.322C143.038 156.268 145.019 154.878 147.488 153.244C149.957 151.582 153.489 149.239 155.297 148.013C160.954 144.199 160.552 144.335 167.385 144.09C173.443 143.899 175.28 143.654 178.668 142.727C185.875 140.711 192.937 135.971 197.675 129.977C199.283 127.988 199.455 127.607 199.053 127.389C198.278 126.98 190.239 127.416 187.482 128.015C181.424 129.323 176.113 131.475 171.06 134.69C169.509 135.671 168.103 136.543 167.902 136.652C167.528 136.843 168.361 135.807 168.993 135.262C169.538 134.799 175.453 128.043 177.434 125.591C181.022 121.177 181.137 121.095 184.697 119.978C197.675 115.864 205.714 107.773 209.59 94.9676C210.049 93.3602 210.078 93.115 209.705 92.9788C208.355 92.4884 201.694 95.0766 198.134 97.4469C194.086 100.171 189.98 104.503 186.478 109.789C185.587 111.151 184.784 112.213 184.697 112.132C184.611 112.077 184.697 111.778 184.841 111.505C185.013 111.233 185.731 109.053 186.478 106.656C188.688 99.5175 189.664 96.6023 190.44 95.1856C191.186 93.7961 192.478 92.5429 196.67 89.1645C202.297 84.5875 205.685 79.193 207.523 71.7825C208.183 69.1125 208.269 68.2135 208.269 63.7453C208.269 60.9664 208.126 58.4326 207.982 58.0785L207.695 57.4518L206.288 58.3509C204.278 59.5769 200.833 62.9825 199.082 65.38C196.01 69.6029 193.454 75.5967 191.76 82.4079L191.071 85.1323L191.014 83.3615C190.985 82.3806 190.813 78.3757 190.612 74.4797C190.21 66.3881 190.325 65.3255 191.904 62.4104C192.421 61.4296 193.684 59.0865 194.718 57.2066C196.727 53.4741 197.56 50.8859 198.134 46.5813C198.737 41.9224 198.077 35.5472 196.555 31.2153C195.751 28.9812 194.545 26.5565 194.115 26.3113C193.77 26.0933 191.645 29.4989 190.583 31.9237C188.774 36.1738 187.856 40.5602 187.569 46.1726C187.425 49.4964 187.741 54.8091 188.229 57.2066C188.344 57.806 188.315 57.806 187.942 57.0704C187.712 56.6073 186.678 54.237 185.645 51.7577C184.611 49.2785 183.118 45.8184 182.286 44.0475C180.563 40.2605 180.305 38.6803 180.965 35.52C183.061 25.6847 181.884 17.4296 177.376 10.2642C175.883 7.8667 172.237 3.80725 171.577 3.80725C171.376 3.80725 171.031 4.65182 170.744 5.76886C169.308 11.6809 169.509 17.7565 171.318 23.9682C172.036 26.4475 174.275 31.8147 174.936 32.6865C175.223 33.0407 175.194 33.0407 174.821 32.6865C173.96 31.8964 168.878 25.4395 166.897 22.606C165.777 21.0258 164.14 18.3831 163.279 16.7484C160.552 11.6809 157.594 8.30261 153.403 5.46918C148.952 2.47226 143.727 0.510651 139.104 0.10199C137.927 -0.00698853 136.951 -0.0342407 136.951 0.0475006C136.951 0.510651 138.588 3.97072 139.707 5.79611C144.158 13.2066 149.527 17.8655 158.283 21.8977C160.379 22.8785 162.676 24.0772 163.394 24.5949C165.117 25.8481 169.079 30.2073 171.72 33.7763C175.453 38.7893 175.51 39.0345 172.237 35.9286C166.466 30.5069 160.925 27.8097 154.58 27.3466C151.967 27.1559 148.436 27.4283 148.436 27.8097C148.436 28.3546 151.249 32.0871 152.972 33.8035C155.125 35.9831 157.02 37.3998 160.207 39.2252C163.279 40.9689 166.007 41.9497 171.462 43.2847C176.572 44.5107 177.778 45.0283 179.242 46.554C180.506 47.889 182.487 51.567 183.693 54.8091C184.956 58.133 187.052 65.6525 186.736 65.6525C186.678 65.6525 186.19 64.8351 185.645 63.7998C181.769 56.5528 174.247 50.3683 167.241 48.6518C165.289 48.1887 162.217 47.78 162.217 48.0252C162.217 48.4611 164.112 53.1744 164.801 54.5094C166.351 57.3701 169.05 60.8847 171.605 63.2549C174.763 66.2246 177.261 67.9955 181.453 70.3113C185.415 72.4909 186.305 73.5262 187.08 76.7683C188.057 80.7732 187.712 88.5379 186.248 95.6215L185.616 98.7546L185.444 94.9404C185.329 92.8426 185.099 90.3361 184.927 89.4097C183.807 83.8246 181.252 79.0568 177.376 75.406C175.366 73.5262 170.945 70.72 170.457 71.0197C170.026 71.2649 170.399 79.2748 170.974 81.9992C172.151 87.6661 174.591 93.0333 178.582 98.7546C181.74 103.277 182.171 104.285 182.171 107.064C182.171 111.996 179.329 118.044 173.328 125.917C172.208 127.389 171.261 128.56 171.232 128.506C171.175 128.451 171.577 127.416 172.151 126.217C173.931 122.267 174.62 119.215 174.763 114.284C174.878 110.579 174.821 109.543 174.333 107.446C173.299 103.032 171.577 99.463 168.792 95.9484C168.16 95.1856 167.557 94.5317 167.413 94.5317C167.04 94.5317 165.777 97.3924 165.002 99.9806C163.882 103.659 163.566 106.71 163.738 112.132C163.853 116.327 164.026 117.69 164.944 121.776C166.667 129.704 166.667 131.693 164.858 134.581C163.595 136.57 159.087 141.174 155.958 143.654C154.034 145.179 149.354 148.449 148.148 149.157C147.919 149.293 148.665 148.394 149.785 147.141C154.953 141.501 157.795 135.889 158.8 129.405C159.202 126.708 159.001 121.94 158.341 119.324C157.767 117.036 156.79 114.693 156.388 114.693C155.814 114.693 152.828 117.88 151.22 120.223C147.258 125.89 145.564 131.285 145.019 139.894C144.473 148.558 142.894 152.018 138.358 154.606C135.2 156.459 123.084 161.281 121.648 161.281C121.476 161.281 122.021 160.845 122.883 160.3C130.778 155.369 135.602 148.966 137.554 140.848C138.272 137.905 138.674 130.495 138.1 130.495C137.324 130.495 132.903 133.573 130.233 135.971C126.328 139.458 123.4 143.163 121.218 147.25C119.897 149.702 119.524 150.71 118.289 154.797C117.054 158.829 116.164 160.791 115.073 161.744C113.092 163.488 107.465 165.913 105.369 165.913C102.843 165.913 97.043 163.461 95.0332 161.553C93.6551 160.246 93.4254 159.728 91.2721 152.835C90.784 151.255 90.0088 149.212 89.5494 148.258C86.9654 142.836 81.8549 136.843 76.6582 133.165C74.3326 131.503 72.1506 130.331 71.8635 130.576C71.7773 130.685 71.8348 132.565 72.0357 134.772C72.7535 143.654 75.6533 150.002 81.5391 155.56C83.6924 157.63 85.9605 159.292 88.1713 160.491C89.6068 161.254 89.6355 161.308 88.7168 161.118C86.1902 160.654 77.3473 157.303 73.1268 155.233C67.442 152.426 66.0351 149.593 65.4609 139.812C64.9728 131.394 63.3363 125.972 59.6326 120.605C58.1684 118.452 54.7518 114.693 54.2637 114.693C54.1488 114.693 53.7756 115.265 53.4598 115.973C50.7035 122.103 50.9045 130.713 53.9766 137.524C55.6131 141.174 58.1109 144.771 60.982 147.577C61.7859 148.367 62.3027 149.021 62.1305 149.021C61.9869 149.021 60.1781 147.849 58.1396 146.405C52.9717 142.755 46.6553 136.734 45.3346 134.145C44.4158 132.347 44.3584 132.129 44.3871 129.405C44.4158 127.47 44.6742 125.4 45.191 123.002C47.2295 113.576 47.3156 107.391 45.5068 100.907C44.7603 98.2097 43.1238 94.4772 42.7506 94.5862C42.2625 94.7497 39.8795 97.9918 38.7885 99.9806C35.257 106.438 34.4244 113.685 36.4055 120.959C36.8648 122.675 37.6687 124.937 38.1568 125.972C38.6449 127.007 38.9894 127.906 38.932 127.961C38.7885 128.124 34.7977 122.893 33.3047 120.55C31.2949 117.444 29.3713 113.358 28.7109 110.77C27.5338 106.247 28.1654 103.495 31.2662 99.463C36.8361 92.1615 39.5637 84.4785 40.0805 74.4525C40.2527 71.619 40.1953 70.8289 39.9082 70.8289C39.0756 70.8289 35.3432 73.0085 33.7066 74.4252C27.9645 79.52 24.7775 87.094 24.6627 95.7577L24.634 98.2097L24.232 96.8475C24.0311 96.0847 23.5717 93.4692 23.2271 90.9899C22.5094 85.7317 22.5668 79.2475 23.3994 76.4141C24.232 73.5262 24.9211 72.7088 28.3377 70.6927C32.3285 68.3224 33.7928 67.3144 36.549 64.9986C41.7744 60.6667 45.5355 55.2723 47.4018 49.4692L47.9186 47.8618L45.8801 48.0525C43.2674 48.2704 39.2191 49.5782 36.8074 50.9404C32.0127 53.6648 28.309 57.5336 24.9785 63.2822C24.3182 64.4537 23.7152 65.3528 23.6291 65.2983C23.4281 65.0803 25.4666 58.2147 26.7299 54.9726C28.4525 50.5045 30.2039 47.3986 31.8404 45.9546C33.3047 44.6469 33.3334 44.6469 40.4824 42.8215C47.2582 41.1051 52.2252 38.4896 56.5893 34.3484C58.9148 32.1416 61.7285 28.5998 61.7285 27.8642C61.7285 26.9924 55.1537 27.1014 51.3064 28.0549C46.5978 29.2265 43.3822 31.1063 38.5875 35.4927C36.7787 37.1274 35.3144 38.3806 35.3144 38.2989C35.3144 38.0265 38.4152 33.8035 40.4537 31.3243C44.8465 25.9299 46.8275 24.2679 51.249 22.1429C58.8 18.5466 63.1353 15.3045 67.1262 10.2642C69.3943 7.45802 72.9258 1.32799 72.9258 0.292694C72.9258 -0.115967 70.6002 -0.0342407 68.332 0.428925Z" fill="white"/>
</svg>
