<svg width="331" height="92" viewBox="0 0 331 92" fill="none" xmlns="http://www.w3.org/2000/svg">
<path d="M9.28177 43.4124L2.1499 43.7127L47.0545 0C47.0545 0 65.5814 14.4568 69.0529 21.3221C72.5172 28.1943 70.8468 42.288 70.8468 42.288L21.9042 43.3705L12.5863 39.9903L9.28177 43.4124Z" fill="#C9478F"/>
<path d="M25.6152 46.5903L73.4103 47.9662C73.4103 47.9662 72.9818 61.7665 69.1181 69.1835C65.2471 76.6005 44.3817 84.7299 44.3817 84.7299L0 47.4214L8.59165 46.8138L13.2397 50.7737L25.6152 46.5903Z" fill="#C6332B"/>
<path d="M49.6035 0.614746L102.243 2.87057L99.1852 41.3314L92.0534 37.0362L91.8282 41.3942L77.7315 41.2615C77.7315 41.2615 76.969 25.9177 72.0304 17.5649C67.5276 9.95931 49.6035 0.614746 49.6035 0.614746Z" fill="#EFC42A"/>
<path d="M76.7074 50.7597L87.9063 47.6099L88.0588 50.9901L103.172 45.7661L103.521 88.103L51.7168 86.2104C51.7168 86.2104 70.9264 81.2168 74.1655 73.8208C77.4046 66.4247 76.7074 50.7597 76.7074 50.7597Z" fill="#5BB3DF"/>
<path d="M2.71631 5.48926L38.0198 5.59402L3.09396 36.9032L2.71631 5.48926Z" fill="#254A95"/>
<path d="M4.62636 55.8511L1.79395 92.0002L31.0622 89.3393L33.8292 86.1336C33.8292 86.1336 40.736 85.3654 42.1812 84.8206C43.6265 84.2759 4.62636 55.8511 4.62636 55.8511Z" fill="#77AD3E"/>
<path d="M122.142 8.54834V17.8231H122.23C122.861 16.9501 123.573 16.2936 124.358 15.8536C125.149 15.4136 126.101 15.1971 127.219 15.1971C129.659 15.1971 131.446 16.105 132.593 17.9278C133.741 19.7506 134.315 22.7049 134.315 26.8115C134.315 30.9111 133.741 33.8513 132.593 35.6322C131.446 37.4131 129.652 38.3001 127.219 38.3001C126.013 38.3001 125.004 38.0976 124.183 37.6855C123.37 37.2735 122.629 36.5541 121.968 35.5135H121.881V37.8531H116.202V8.56231H122.142V8.54834ZM122.723 32.238C123.108 33.4532 123.965 34.0608 125.28 34.0608C126.573 34.0608 127.408 33.4532 127.793 32.238C128.178 31.0228 128.374 29.207 128.374 26.8045C128.374 24.395 128.178 22.5861 127.793 21.3709C127.408 20.1557 126.565 19.5411 125.28 19.5411C123.958 19.5411 123.108 20.1487 122.723 21.3709C122.339 22.5861 122.142 24.402 122.142 26.8045C122.142 29.2139 122.331 31.0228 122.723 32.238Z" fill="white"/>
<path d="M149.493 35.255C148.861 36.3515 148.048 37.1267 147.038 37.5946C146.036 38.0626 144.889 38.293 143.596 38.293C141.7 38.293 140.248 37.8181 139.231 36.8753C138.214 35.9324 137.706 34.3541 137.706 32.1331V15.7627H143.64V30.9808C143.64 32.1262 143.843 32.9293 144.242 33.3833C144.642 33.8303 145.288 34.0607 146.182 34.0607C148.273 34.0607 149.319 32.8455 149.319 30.4081V15.7627H155.252V37.8391H149.573V35.255H149.493Z" fill="white"/>
<path d="M164.294 29.4306C164.294 30.0871 164.345 30.7227 164.447 31.3372C164.549 31.9518 164.708 32.4966 164.941 32.9785C165.173 33.4604 165.471 33.8375 165.841 34.1239C166.212 34.4102 166.669 34.5569 167.221 34.5569C168.223 34.5569 168.957 34.2146 169.414 33.5302C169.872 32.8458 170.192 31.8052 170.359 30.4154H175.689C175.573 32.9855 174.861 34.941 173.54 36.2819C172.218 37.6228 170.141 38.2933 167.301 38.2933C165.151 38.2933 163.474 37.9511 162.268 37.2667C161.062 36.5822 160.176 35.6813 159.603 34.5569C159.029 33.4324 158.68 32.1753 158.55 30.7855C158.419 29.3887 158.354 27.9919 158.354 26.6021C158.354 25.1215 158.462 23.7038 158.673 22.3349C158.891 20.966 159.319 19.7508 159.966 18.6823C160.612 17.6137 161.535 16.7687 162.74 16.1401C163.946 15.5115 165.551 15.1973 167.555 15.1973C169.276 15.1973 170.685 15.4627 171.789 16.0004C172.893 16.5312 173.757 17.2855 174.389 18.2562C175.021 19.227 175.45 20.4073 175.682 21.7832C175.914 23.166 176.023 24.7025 176.023 26.3996V27.6707H164.28V29.4306H164.294ZM170.184 22.0625C170.097 21.42 169.945 20.8752 169.734 20.4213C169.516 19.9673 169.218 19.6251 168.826 19.3946C168.441 19.1642 167.947 19.0454 167.345 19.0454C166.742 19.0454 166.248 19.1781 165.863 19.4365C165.478 19.695 165.166 20.0372 164.941 20.4632C164.708 20.8892 164.549 21.3571 164.447 21.8809C164.345 22.3978 164.294 22.9216 164.294 23.4384V24.2974H170.359C170.33 23.4523 170.271 22.705 170.184 22.0625Z" fill="white"/>
<path d="M183.475 31.3582C183.475 32.315 183.737 33.0902 184.274 33.6769C184.804 34.2635 185.574 34.5569 186.576 34.5569C187.491 34.5569 188.225 34.3404 188.77 33.9004C189.314 33.4604 189.583 32.8039 189.583 31.9309C189.583 31.2185 189.365 30.6808 188.937 30.3106C188.508 29.9405 188.007 29.6471 187.433 29.4306L183.265 27.9919C181.631 27.4472 180.396 26.6719 179.568 25.6732C178.733 24.6745 178.319 23.3965 178.319 21.839C178.319 20.9381 178.479 20.0791 178.791 19.2759C179.11 18.4658 179.612 17.7674 180.294 17.1667C180.984 16.5661 181.863 16.0842 182.938 15.728C184.013 15.3719 185.313 15.1973 186.831 15.1973C189.525 15.1973 191.522 15.742 192.808 16.8385C194.1 17.935 194.747 19.4784 194.747 21.4759V22.3768H189.416C189.416 21.2244 189.22 20.3864 188.835 19.8556C188.45 19.3248 187.767 19.0594 186.794 19.0594C186.046 19.0594 185.4 19.255 184.841 19.653C184.281 20.0511 183.998 20.6448 183.998 21.4409C183.998 21.9857 184.18 22.4816 184.536 22.9146C184.891 23.3546 185.574 23.7247 186.576 24.025L190.15 25.1704C192.016 25.771 193.331 26.5602 194.108 27.531C194.878 28.5018 195.27 29.8217 195.27 31.4909C195.27 32.6642 195.052 33.6839 194.623 34.5499C194.195 35.4089 193.599 36.1283 192.837 36.7009C192.074 37.2736 191.174 37.6857 190.128 37.9301C189.082 38.1746 187.927 38.3003 186.664 38.3003C185 38.3003 183.613 38.1466 182.509 37.8463C181.405 37.546 180.534 37.0921 179.888 36.4914C179.241 35.8908 178.791 35.1575 178.529 34.2985C178.268 33.4394 178.145 32.4756 178.145 31.4071V30.6249H183.475V31.3582Z" fill="white"/>
<path d="M204.377 24.011H204.464L210.441 15.7629H216.978L210.31 24.458L217.965 37.8323H211.429L206.483 28.7671L204.377 31.3931V37.8323H198.443V8.5415H204.377V24.011Z" fill="white"/>
<path d="M221.277 40.8352C222.366 40.8352 223.151 40.5628 223.623 40.0111C224.095 39.4663 224.378 38.74 224.458 37.8391L217.965 15.7627H224.16L227.603 31.0227H227.69L230.704 15.7627H236.637L231.045 36.3585C230.53 38.1883 230.036 39.6759 229.564 40.8073C229.092 41.9387 228.532 42.8186 227.886 43.4332C227.24 44.0478 226.463 44.4529 225.562 44.6415C224.654 44.83 223.521 44.9278 222.141 44.9278H219.737V40.7025C220.246 40.7933 220.769 40.8352 221.277 40.8352Z" fill="white"/>
<path d="M250.618 35.4998C249.957 36.5404 249.216 37.2668 248.403 37.6718C247.589 38.0839 246.573 38.2864 245.374 38.2864C242.934 38.2864 241.14 37.3995 240 35.6186C238.853 33.8376 238.279 30.8974 238.279 26.7978C238.279 22.6912 238.853 19.737 240 17.9142C241.148 16.0983 242.941 15.1834 245.374 15.1834C246.493 15.1834 247.444 15.3999 248.236 15.8399C249.027 16.2799 249.732 16.9364 250.364 17.8094H250.451V8.53467H256.384V37.8255H250.705V35.4859H250.618V35.4998ZM244.786 32.2383C245.171 33.4535 246.013 34.0611 247.299 34.0611C248.613 34.0611 249.47 33.4535 249.855 32.2383C250.24 31.0231 250.436 29.2073 250.436 26.8048C250.436 24.3953 250.24 22.5864 249.855 21.3712C249.47 20.156 248.613 19.5414 247.299 19.5414C246.006 19.5414 245.171 20.149 244.786 21.3712C244.401 22.5864 244.205 24.4023 244.205 26.8048C244.205 29.2142 244.401 31.0231 244.786 32.2383Z" fill="white"/>
<path d="M266.014 15.7701V18.3542H266.102C266.733 17.2577 267.547 16.4615 268.556 15.9517C269.559 15.4488 270.706 15.1904 271.999 15.1904C273.894 15.1904 275.347 15.6863 276.364 16.6641C277.38 17.6488 277.889 19.2481 277.889 21.462V37.8325H271.955V22.6074C271.955 21.462 271.752 20.6589 271.352 20.2049C270.953 19.751 270.307 19.5275 269.421 19.5275C267.329 19.5275 266.283 20.7427 266.283 23.1801V37.8255H260.35V15.7491H266.014V15.7701Z" fill="white"/>
<path d="M287.991 8.22021V13.0601H282.058V8.22021H287.991ZM287.991 15.7699V37.8463H282.058V15.7699H287.991Z" fill="white"/>
<path d="M297.839 15.7701V18.3542H297.926C298.558 17.2577 299.372 16.4615 300.381 15.9517C301.383 15.4488 302.531 15.1904 303.824 15.1904C305.719 15.1904 307.172 15.6863 308.188 16.6641C309.205 17.6488 309.713 19.2481 309.713 21.462V37.8325H303.78V22.6074C303.78 21.462 303.577 20.6589 303.177 20.2049C302.778 19.751 302.131 19.5275 301.245 19.5275C299.154 19.5275 298.108 20.7427 298.108 23.1801V37.8255H292.174V15.7491H297.839V15.7701Z" fill="white"/>
<path d="M331 36.736C331 39.5785 330.259 41.7156 328.785 43.1333C327.311 44.5581 324.834 45.2704 321.363 45.2704C318.843 45.2704 316.896 44.7536 315.538 43.734C314.173 42.7073 313.497 41.2547 313.497 39.362H319.177C319.177 40.0744 319.475 40.6331 320.077 41.0451C320.361 41.2337 320.673 41.3873 321 41.4991C321.326 41.6108 321.682 41.6597 322.053 41.6597C323.258 41.6597 324.101 41.2896 324.587 40.5493C325.074 39.809 325.321 38.8941 325.321 37.7976V34.8853H325.234C324.631 35.7094 323.89 36.3659 323.019 36.8547C322.14 37.3506 321.232 37.595 320.288 37.595C317.935 37.595 316.163 36.743 314.979 35.0319C313.788 33.3208 313.192 30.4574 313.192 26.4346C313.192 25.1496 313.272 23.8366 313.432 22.4957C313.592 21.1548 313.919 19.9465 314.42 18.864C314.921 17.7815 315.654 16.9015 316.613 16.2171C317.572 15.5326 318.857 15.1904 320.462 15.1904C321.297 15.1904 322.154 15.4069 323.04 15.8469C323.926 16.2869 324.66 17.0761 325.234 18.2285H325.321V15.7701H331V36.736ZM319.242 29.6752C319.315 30.3596 319.46 30.9672 319.671 31.498C319.889 32.0288 320.186 32.4548 320.571 32.7691C320.956 33.0834 321.464 33.244 322.096 33.244C322.728 33.244 323.251 33.0834 323.665 32.7691C324.079 32.4548 324.413 32.0218 324.653 31.4771C324.892 30.9323 325.067 30.2688 325.168 29.4866C325.27 28.7044 325.321 27.8524 325.321 26.9235C325.321 24.2417 325.096 22.342 324.653 21.2176C324.21 20.1002 323.396 19.5345 322.22 19.5345C321.559 19.5345 321.029 19.6741 320.629 19.9465C320.23 20.2189 319.91 20.6659 319.685 21.2805C319.453 21.8951 319.307 22.7192 319.235 23.7388C319.162 24.7655 319.126 26.0156 319.126 27.4892C319.133 28.2644 319.17 28.9908 319.242 29.6752Z" fill="white"/>
<path d="M128.577 75.029C127.873 76.0766 127.081 76.81 126.209 77.222C125.338 77.6341 124.256 77.8436 122.97 77.8436C120.37 77.8436 118.453 76.9426 117.226 75.1478C115.998 73.3529 115.388 70.3777 115.388 66.2362C115.388 62.0947 115.998 59.0986 117.226 57.2618C118.453 55.425 120.363 54.5031 122.97 54.5031C124.169 54.5031 125.185 54.7266 126.028 55.1666C126.87 55.6066 127.626 56.2701 128.301 57.157H128.395V47.7915H134.736V77.3826H128.671V75.022L128.577 75.029ZM122.353 71.7326C122.767 72.9618 123.66 73.5764 125.04 73.5764C126.449 73.5764 127.357 72.9618 127.771 71.7326C128.185 70.5034 128.388 68.6736 128.388 66.2432C128.388 63.8128 128.185 61.983 127.771 60.7538C127.357 59.5246 126.449 58.91 125.04 58.91C123.66 58.91 122.767 59.5246 122.353 60.7538C121.939 61.983 121.736 63.8128 121.736 66.2432C121.728 68.6666 121.939 70.5034 122.353 71.7326Z" fill="white"/>
<path d="M138.912 61.3895C138.912 60.0905 139.144 59.0079 139.602 58.1349C140.059 57.2619 140.684 56.5635 141.461 56.0188C142.245 55.481 143.16 55.0969 144.213 54.8595C145.274 54.622 146.392 54.5103 147.591 54.5103C149.486 54.5103 151.018 54.6779 152.188 55.0061C153.35 55.3344 154.258 55.8093 154.897 56.4169C155.543 57.0245 155.979 57.7508 156.204 58.5959C156.436 59.4409 156.545 60.3558 156.545 61.3546V73.0876C156.545 74.1352 156.596 74.9524 156.705 75.532C156.814 76.1117 157.017 76.7333 157.322 77.3968H151.258C151.04 77.0406 150.881 76.6565 150.779 76.2584C150.67 75.8603 150.568 75.4622 150.481 75.0781H150.387C149.653 76.2374 148.803 76.9917 147.837 77.3339C146.872 77.6831 145.622 77.8507 144.09 77.8507C142.986 77.8507 142.049 77.6761 141.287 77.3339C140.517 76.9917 139.907 76.5098 139.449 75.9022C138.992 75.2946 138.65 74.6102 138.44 73.8489C138.222 73.0876 138.12 72.3334 138.12 71.5861C138.12 70.5385 138.244 69.6306 138.491 68.8693C138.737 68.1081 139.108 67.4586 139.616 66.9208C140.125 66.383 140.764 65.936 141.548 65.5729C142.332 65.2167 143.269 64.8954 144.373 64.6161L147.954 63.7431C148.905 63.5196 149.559 63.2193 149.929 62.8282C150.292 62.4441 150.481 61.8784 150.481 61.1311C150.481 60.272 150.256 59.6086 149.813 59.1197C149.37 58.6308 148.607 58.3933 147.54 58.3933C146.559 58.3933 145.826 58.6587 145.332 59.1825C144.845 59.7063 144.598 60.4117 144.598 61.2987V61.9203H138.904V61.3895H138.912ZM149.116 66.9627C148.629 67.1443 148.179 67.277 147.787 67.3538C146.501 67.6052 145.579 68.0173 145.027 68.5969C144.475 69.1766 144.199 69.9658 144.199 70.9575C144.199 71.8166 144.38 72.5499 144.751 73.1575C145.121 73.7651 145.731 74.0724 146.588 74.0724C147.017 74.0724 147.46 74.0095 147.917 73.8838C148.375 73.7581 148.796 73.5626 149.181 73.2832C149.566 73.0108 149.878 72.6477 150.125 72.2077C150.372 71.7677 150.496 71.2369 150.496 70.6293V66.2364C150.06 66.5437 149.602 66.7811 149.116 66.9627Z" fill="white"/>
<path d="M167.119 55.0899V57.7019H167.214C167.889 56.5985 168.761 55.7883 169.836 55.2785C170.911 54.7687 172.131 54.5103 173.511 54.5103C175.53 54.5103 177.084 55.0061 178.173 56.0048C179.263 57.0035 179.807 58.6168 179.807 60.8517V77.3898H173.467V62.011C173.467 60.8517 173.249 60.0416 172.821 59.5876C172.392 59.1336 171.702 58.9032 170.751 58.9032C168.514 58.9032 167.395 60.1324 167.395 62.5907V77.3898H161.055V55.0899H167.119Z" fill="white"/>
<path d="M190.091 55.0896V57.3664H190.186C190.985 56.3467 191.878 55.6134 192.873 55.1664C193.868 54.7264 195.059 54.5029 196.431 54.5029C197.899 54.5029 199.133 54.8102 200.128 55.4178C201.123 56.0254 201.791 56.9124 202.125 58.0717H202.22C202.714 56.8845 203.498 55.9905 204.587 55.3969C205.677 54.8032 206.97 54.5099 208.473 54.5099C210.586 54.5099 212.14 55.0826 213.135 56.228C214.13 57.3733 214.632 59.0285 214.632 61.1796V77.3894H208.291V61.8082C208.291 60.8723 208.102 60.153 207.718 59.6501C207.333 59.1543 206.701 58.9028 205.807 58.9028C204.798 58.9028 203.992 59.2101 203.396 59.8177C202.801 60.4253 202.503 61.3891 202.503 62.7161V77.3894H196.163V61.8082C196.163 60.8723 195.974 60.153 195.589 59.6501C195.204 59.1543 194.572 58.9028 193.686 58.9028C192.677 58.9028 191.871 59.2101 191.275 59.8177C190.68 60.4253 190.382 61.3891 190.382 62.7161V77.3894H184.042V55.0896H190.091Z" fill="white"/>
<path d="M218.807 61.3895C218.807 60.0905 219.04 59.0079 219.497 58.1349C219.955 57.2619 220.579 56.5635 221.356 56.0188C222.141 55.481 223.056 55.0969 224.116 54.8595C225.169 54.622 226.295 54.5103 227.493 54.5103C229.389 54.5103 230.921 54.6779 232.091 55.0061C233.253 55.3344 234.153 55.8093 234.8 56.4169C235.446 57.0245 235.882 57.7508 236.107 58.5959C236.339 59.4409 236.448 60.3558 236.448 61.3546V73.0876C236.448 74.1352 236.499 74.9524 236.608 75.532C236.717 76.1117 236.92 76.7333 237.225 77.3968H231.161C230.95 77.0406 230.791 76.6565 230.682 76.2584C230.573 75.8603 230.478 75.4622 230.384 75.0781H230.289C229.556 76.2374 228.706 76.9917 227.74 77.3339C226.774 77.6831 225.525 77.8507 223.993 77.8507C222.889 77.8507 221.952 77.6761 221.189 77.3339C220.427 76.9917 219.81 76.5098 219.352 75.9022C218.894 75.2946 218.553 74.6102 218.343 73.8489C218.132 73.0876 218.023 72.3334 218.023 71.5861C218.023 70.5385 218.146 69.6306 218.386 68.8693C218.633 68.1081 219.003 67.4586 219.512 66.9208C220.02 66.383 220.659 65.936 221.444 65.5729C222.228 65.2167 223.165 64.8954 224.269 64.6161L227.856 63.7431C228.808 63.5196 229.462 63.2193 229.832 62.8282C230.195 62.4441 230.384 61.8784 230.384 61.1311C230.384 60.272 230.166 59.6086 229.723 59.1197C229.28 58.6378 228.517 58.3933 227.45 58.3933C226.469 58.3933 225.736 58.6587 225.242 59.1825C224.748 59.7063 224.508 60.4117 224.508 61.2987V61.9203H218.815L218.807 61.3895ZM229.004 66.9627C228.51 67.1443 228.067 67.277 227.675 67.3538C226.389 67.6052 225.467 68.0173 224.915 68.5969C224.363 69.1766 224.087 69.9658 224.087 70.9575C224.087 71.8166 224.269 72.5499 224.639 73.1575C225.002 73.7651 225.62 74.0724 226.477 74.0724C226.905 74.0724 227.348 74.0095 227.806 73.8838C228.263 73.7581 228.684 73.5626 229.069 73.2832C229.454 73.0108 229.767 72.6477 230.013 72.2077C230.26 71.7677 230.377 71.2369 230.377 70.6293V66.2364C229.955 66.5437 229.498 66.7811 229.004 66.9627Z" fill="white"/>
<path d="M247.015 55.0899V58.0721H247.11C247.756 56.9966 248.533 56.1305 249.456 55.481C250.378 54.8315 251.489 54.5103 252.811 54.5103C252.993 54.5103 253.189 54.5172 253.385 54.5312C253.581 54.5452 253.777 54.5661 253.958 54.5941V60.0625C253.624 60.0346 253.29 60.0136 252.971 59.9997C252.651 59.9857 252.317 59.9787 251.983 59.9787C251.431 59.9787 250.879 60.0485 250.327 60.1882C249.775 60.3279 249.267 60.5584 248.809 60.8727C248.352 61.1939 247.981 61.606 247.705 62.1158C247.429 62.6256 247.291 63.2542 247.291 64.0015V77.3898H240.951V55.0899H247.015Z" fill="white"/>
<path d="M262.819 63.4215H262.913L269.297 55.0896H276.284L269.166 63.8755L277.344 77.3895H270.357L265.077 68.2265L262.826 70.8804V77.3895H256.486V47.7983H262.826V63.4215H262.819Z" fill="white"/>
</svg>
